<?xml version="1.0" encoding="utf-8"?>
<svg version="1.1" id="Layer_1" xmlns="http://www.w3.org/2000/svg" xmlns:xlink="http://www.w3.org/1999/xlink" x="0px" y="0px"
	 viewBox="0 0 2580 1800" style="enable-background:new 0 0 2580 1800;" xml:space="preserve">
<style type="text/css">
	.st0{fill:none;stroke:#404041;stroke-width:10;stroke-linecap:round;stroke-miterlimit:10;}
	.st1{fill:#EC1C24;stroke:#231F20;stroke-width:10;stroke-miterlimit:10;}
	.st2{fill:#2E3191;stroke:#231F20;stroke-width:10;stroke-miterlimit:10;}
	.st3{fill:#00A551;stroke:#231F20;stroke-width:10;stroke-miterlimit:10;}
	.st4{fill:none;}
	.st5{fill:#231F20;stroke:#231F20;stroke-width:10;stroke-miterlimit:10;}
	.st6{font-family:'MyriadPro-Regular';}
	.st7{font-size:512px;}
	.st8{font-size:207.8652px;}
	.st9{fill:#231F20;stroke:#231F20;stroke-width:10;}
</style>
<g>
	<ellipse transform="matrix(0.6659 -0.746 0.746 0.6659 -363.6406 724.8311)" class="st0" cx="627.5" cy="768.4" rx="264.3" ry="448.3"/>
	<ellipse class="st0" cx="627.5" cy="768.4" rx="264.3" ry="448.3"/>
	
	<circle class="st1" cx="627.5" cy="887.4" r="101.2"/>
	<circle class="st1" cx="516.3" cy="694.8" r="101.2"/>
	<circle class="st1" cx="738.6" cy="701.6" r="101.2"/>
	<circle class="st2" cx="738.7" cy="823.2" r="101.2"/>
	<circle class="st2" cx="516.3" cy="823.2" r="101.2"/>
	<circle class="st2" cx="627.5" cy="630.5" r="101.2"/>
	<circle class="st1" cx="627.5" cy="768.4" r="101.2"/>
	<circle class="st3" cx="961.6" cy="768.4" r="49.8"/>
	<circle class="st3" cx="627.5" cy="323.7" r="49.8"/>
	<circle class="st3" cx="444.8" cy="1085.1" r="49.8"/>

	<rect x="600.7" y="768.4" class="st4" width="1359.3" height="379.3"/>
	<text transform="matrix(1 0 0 1 600.6963 1131.9609)"><tspan x="0" y="0" class="st5 st6 st7">Green</tspan><tspan x="1295.3" y="0" class="st5 st6 st8"> </tspan></text>
	<rect x="903.8" y="1172.8" class="st4" width="1537.2" height="402"/>
	<text transform="matrix(1 0 0 1 903.7922 1536.2791)" class="st9 st6 st7">Tech</text>
</g>
</svg>
